<?xml version="1.0" encoding="UTF-8" standalone="no"?>
<svg
   version="1.1"
   width="412"
   height="254"
   id="svg613"
   sodipodi:docname="Logo.svg"
   inkscape:version="1.2.1 (9c6d41e410, 2022-07-14)"
   xmlns:inkscape="http://www.inkscape.org/namespaces/inkscape"
   xmlns:sodipodi="http://sodipodi.sourceforge.net/DTD/sodipodi-0.dtd"
   xmlns="http://www.w3.org/2000/svg"
   xmlns:svg="http://www.w3.org/2000/svg">
  <defs
     id="defs617" />
  <sodipodi:namedview
     id="namedview615"
     pagecolor="#505050"
     bordercolor="#ffffff"
     borderopacity="1"
     inkscape:showpageshadow="0"
     inkscape:pageopacity="0"
     inkscape:pagecheckerboard="1"
     inkscape:deskcolor="#505050"
     showgrid="false"
     inkscape:zoom="1.8582677"
     inkscape:cx="225.20975"
     inkscape:cy="168.43644"
     inkscape:window-width="1920"
     inkscape:window-height="1129"
     inkscape:window-x="1912"
     inkscape:window-y="-8"
     inkscape:window-maximized="1"
     inkscape:current-layer="svg613" />
  <g
     id="g3370"
     transform="translate(6,2.190877)">
    <path
       id="path533"
       d="m 0,0 v 61 c 10.21627,0 13.856738,2.092259 20.664062,-2.988281 2.776064,-3.579172 2.888911,-5.363716 2.824219,-9.751953 L 23.375,45.8125 C 23.323826,42.85601 23.20411,39.953768 23,37 21.896301,34.792601 20.839622,33.912886 18.9375,32.375 L 16,30 c 1.812498,-0.687499 1.812502,-0.687501 4,-2 3.007112,-3.775193 3.344591,-6.788388 3.3125,-11.433594 L 23.25,14.25 C 23.198536,6.4660681 22.89452,5.8945202 17,0 Z m 8,7 c 5.999994,0.999999 6.000002,1.000002 8,3 0.300781,3.152341 0.300781,3.152348 0.3125,6.9375 l 0.05078,3.777344 C 16,23.999997 15.999999,24.000002 14.792969,25.941406 13.000002,26.999999 12.999995,27 8,27 Z m 0,27 c 4.999995,0 5.000002,10e-7 6.792969,1.09375 1.780694,2.812229 1.567788,5.109898 1.519531,8.40625 l -0.01172,3.46875 C 16,49.999997 15.999998,50.000003 14,53 H 8 Z"
       transform="translate(190,95)"
       style="fill:#13889b" />
    <path
       d="m 0,0 c 2.64,0 5.28,0 8,0 1.4812345,3.4615637 2.478567,6.7679607 3.21875,10.457031 0.210117,1.030606 0.420234,2.061211 0.636719,3.123047 C 12.068164,14.646777 12.280859,15.713477 12.5,16.8125 13.864836,23.582916 15.258307,30.315445 17,37 16.855625,36.088633 16.71125,35.177266 16.5625,34.238281 14.921693,22.786813 14.780907,11.554606 15,0 c 2.64,0 5.28,0 8,0 0,20.13 0,40.26 0,61 -2.64,0 -5.28,0 -8,0 C 14.036552,57.196268 13.076422,53.391714 12.119141,49.586426 11.6358,47.667869 11.14996,45.749942 10.664063,43.832031 8.9263427,36.917354 7.2991337,30.01123 6,23 8.4905709,35.630753 8.2053444,48.183351 8,61 5.36,61 2.72,61 0,61 0,40.87 0,20.74 0,0 Z"
       fill="#436D86"
       transform="translate(240,95)"
       id="path535"
       style="fill:#13889b" />
    <path
       d="m 0,0 c 2.64,0 5.28,0 8,0 0,8.58 0,17.16 0,26 2.31,0 4.62,0 7,0 0,-8.58 0,-17.16 0,-26 2.64,0 5.28,0 8,0 0,20.13 0,40.26 0,61 -2.64,0 -5.28,0 -8,0 0,-8.91 0,-17.82 0,-27 -2.31,0 -4.62,0 -7,0 0,8.91 0,17.82 0,27 C 5.36,61 2.72,61 0,61 0,40.87 0,20.74 0,0 Z"
       fill="#426C85"
       transform="translate(294,95)"
       id="path537"
       style="fill:#13889b" />
    <path
       d="M 0,0 C 2.8590813,1.9127187 5.4342809,3.8685618 7,7 7.071164,9.374025 7.084091,11.750007 7.0625,14.125 7.05348,15.406328 7.044453,16.687656 7.035156,18.007812 7.0235547,18.995234 7.0119531,19.982656 7,21 4.36,21 1.72,21 -1,21 -1.33,17.04 -1.66,13.08 -2,9 -3.32,8.67 -4.64,8.34 -6,8 c -1.1909095,0.971894 -1.1909095,0.971894 -1.1202545,2.752701 0.00222,0.76167 0.00444,1.523339 0.00673,2.30809 7.55e-5,0.860817 1.511e-4,1.721634 2.289e-4,2.608536 0.00516,0.935411 0.010323,1.870822 0.01564,2.834579 0.00212,1.429523 0.00212,1.429523 0.00429,2.887924 0.00562,3.056922 0.018172,6.113771 0.030869,9.17067 0.00501,2.067056 0.00958,4.134114 0.013672,6.201172 C -7.0377766,41.842476 -7.0205006,46.921226 -7,52 c 1.65,0 3.3,0 5,0 0.33,-3.96 0.66,-7.92 1,-12 2.64,0 5.28,0 8,0 0.054417,1.89551 0.09298,3.791479 0.125,5.6875 0.023203,1.055742 0.046406,2.111484 0.070312,3.199219 C 6.918392,53.300832 5.8749538,56.018991 2.9375,59.3125 -1.0830209,61.622161 -4.4650894,61.971179 -9,61 c -3.285632,-2.586562 -6.696099,-5.694526 -7.267426,-10.028763 -0.01143,-1.161991 -0.01143,-1.161991 -0.0231,-2.347458 -0.01276,-0.881341 -0.02552,-1.762682 -0.03867,-2.67073 -0.0022,-0.950014 -0.0045,-1.900028 -0.0067,-2.87883 -0.0067,-0.980347 -0.01331,-1.960695 -0.02017,-2.970749 -0.01013,-2.075405 -0.01482,-4.150843 -0.0145,-6.226273 -0.0044,-3.167298 -0.04065,-6.333193 -0.07861,-9.500244 -0.0059,-2.017573 -0.0098,-4.035153 -0.01172,-6.052734 -0.02156,-1.415912 -0.02156,-1.415912 -0.04355,-2.860428 C -16.465432,9.8100328 -15.857153,6.439885 -12,2 -7.7066866,-0.89331989 -4.9504119,-1.6501373 0,0 Z"
       fill="#446D85"
       transform="translate(283,95)"
       id="path539"
       style="fill:#13889b" />
    <path
       d="m 0,0 c 5.94,0 11.88,0 18,0 0,2.31 0,4.62 0,7 -3.63,0 -7.26,0 -11,0 0,6.6 0,13.2 0,20 2.97,0 5.94,0 9,0 0,2.31 0,4.62 0,7 -2.97,0 -5.94,0 -9,0 0,6.27 0,12.54 0,19 3.63,0 7.26,0 11,0 0,2.64 0,5.28 0,8 -2.437796,0.05397 -4.874397,0.09366 -7.3125,0.125 C 9.997207,61.14176 9.3069141,61.15852 8.5957031,61.17578 4.828646,61.212178 3.215683,61.143789 0,59 c -0.36076355,-2.480377 -0.36076355,-2.480377 -0.34057617,-5.643066 2.2659e-4,-1.181074 4.5318e-4,-2.362147 6.8664e-4,-3.57901 0.0154839,-1.280231 0.0309677,-2.560461 0.0469208,-3.879487 0.004245,-1.306736 0.00849,-2.613473 0.0128632,-3.959808 0.0114593,-3.475547 0.0409351,-6.950718 0.0741119,-10.426117 0.030678,-3.545786 0.0443885,-7.091632 0.0595093,-10.637512 C -0.11430128,13.916497 -0.06152487,6.958305 0,0 Z"
       fill="#406B84"
       transform="translate(218,95)"
       id="path543"
       style="fill:#13889b" />
  </g>
  <g
     id="g3363"
     inkscape:export-filename="Logo2.png"
     inkscape:export-xdpi="400.75562"
     inkscape:export-ydpi="400.75562">
    <rect
       style="fill:none;fill-opacity:1;stroke:none;stroke-width:1.20173"
       id="rect3353"
       width="122.64831"
       height="122.64831"
       x="73.724579"
       y="66.190674" />
    <path
       d="m 139.0049,69.479668 c 3.7423,1.57148 7.15373,3.593412 10.625,5.6875 0.98968,0.579998 1.97936,1.159995 2.99902,1.757568 2.07716,1.219779 4.15002,2.446895 6.21875,3.680909 3.1328,1.859522 6.28535,3.680018 9.44629,5.49121 1.98745,1.147636 3.97444,2.296045 5.96094,3.445313 0.93409,0.535203 1.86817,1.070405 2.83057,1.621826 1.29816,0.761474 1.29816,0.761474 2.62255,1.53833 1.13938,0.66141 1.13938,0.66141 2.30176,1.336182 2.27564,1.643795 3.50695,3.057067 4.99512,5.441162 0.40114,2.521922 0.40114,2.521922 0.43579,5.391842 0.0191,1.07825 0.0383,2.15649 0.058,3.26741 0.003,1.16046 0.007,2.32091 0.0101,3.51653 0.01,1.19852 0.02,2.39704 0.0303,3.63188 0.0152,2.536 0.0222,5.07206 0.0217,7.60811 0.007,3.87219 0.061,7.74179 0.11792,11.61352 0.009,2.46549 0.0148,4.93099 0.0176,7.39649 0.0216,1.15438 0.0431,2.30876 0.0653,3.49812 -0.0442,5.20753 -0.10847,9.02993 -3.49062,13.1657 -2.51404,2.43659 -5.12662,4.38351 -8.21533,6.05102 -0.92152,0.5083 -1.84304,1.01659 -2.79248,1.54029 -0.97211,0.5178 -1.94423,1.0356 -2.9458,1.56909 -2.05951,1.12201 -4.11809,2.24574 -6.17578,3.37109 -1.02819,0.55929 -2.05638,1.11859 -3.11572,1.69483 -2.85753,1.59295 -5.65249,3.25563 -8.43897,4.96923 -0.83894,0.5108 -1.67787,1.02159 -2.54224,1.54786 -1.56237,0.95723 -3.11631,1.9284 -4.65966,2.91601 -5.11289,3.09057 -9.41806,4.57415 -15.38013,3.25098 -3.65232,-1.5667 -6.91233,-3.60384 -10.25,-5.75 -1.92834,-1.19618 -3.85807,-2.39014 -5.78906,-3.58203 -1.47002,-0.9158 -1.47002,-0.9158 -2.96973,-1.8501 -2.94707,-1.79105 -5.9299,-3.4815 -8.95215,-5.14209 -1.42651,-0.78649 -1.42651,-0.78649 -2.881837,-1.58887 -1.813086,-0.99341 -3.631252,-1.97762 -5.455079,-2.95117 -0.822099,-0.45601 -1.644199,-0.91201 -2.491211,-1.38184 -0.718813,-0.38857 -1.437626,-0.77714 -2.178222,-1.17749 -3.781688,-2.93278 -5.73079,-5.46987 -6.408142,-10.19578 -0.17131,-3.269 -0.205058,-6.5134 -0.190979,-9.78688 -0.0062,-1.19806 -0.0124,-2.39613 -0.01878,-3.6305 -0.0071,-2.52827 -0.0039,-5.05658 0.0088,-7.58483 0.01387,-3.8653 -0.02023,-7.72817 -0.05835,-11.59327 -9.51e-4,-2.45963 9.08e-4,-4.91927 0.0059,-7.3789 -0.01326,-1.15327 -0.02652,-2.30654 -0.04018,-3.49475 0.103534,-8.932567 0.103534,-8.932567 3.003556,-12.558475 2.986763,-2.636602 6.044482,-4.502223 9.603027,-6.228027 1.34211,-0.683004 2.683235,-1.367948 4.023437,-2.054688 0.675147,-0.342568 1.35029,-0.685136 2.0459,-1.038085 3.07132,-1.590587 6.05783,-3.306612 9.05566,-5.032227 1.13824,-0.649688 2.27648,-1.299375 3.44922,-1.96875 2.42455,-1.397593 4.81472,-2.841384 7.19531,-4.3125 0.61416,-0.37125 1.22832,-0.7425 1.86109,-1.125 1.70083,-1.029554 3.39097,-2.076715 5.08032,-3.125 3.99718,-1.751678 7.1104,-2.376699 11.35156,-1.46875 z"
       fill="#b9cad3"
       id="path529"
       inkscape:export-filename="Logo2.png"
       inkscape:export-xdpi="420.46405"
       inkscape:export-ydpi="420.46405" />
    <g
       id="g748">
      <path
         d="m 137.23896,92.044155 c 7.92,0 15.84,0 24,0 0,2.64 0,5.28 0,7.999995 -2.31,0 -4.62,0 -7,0 0,15.51 0,31.02 0,47 -2.97,0 -5.94,0 -9,0 0,-15.51 0,-31.02 0,-47 -2.64,0 -5.28,0 -8,0 0,-2.639995 0,-5.279995 0,-7.999995 z"
         fill="#426D87"
         id="path545"
         style="fill:#13889b" />
      <path
         d="m 107.20113,92.044155 h 26 l -0.13453,7.403601 c -3.54462,0.07226 -5.99908,-0.07627 -8.86547,-0.07627 v 16.672669 h 8 v 7 h -25 v -7 h 9 V 99.044155 h -9 z"
         fill="#43486E"
         id="path547"
         style="fill:#4b2d83"
         sodipodi:nodetypes="ccccccccccccc" />
      <path
         d="m 137.23896,152.04415 c 7.92,0 15.84,0 24,0 0,2.64 0,5.28 0,8 -7.92,0 -15.84,0 -24,0 0,-2.64 0,-5.28 0,-8 z"
         fill="#3E6A84"
         id="path557"
         style="fill:#13889b" />
    </g>
    <text
       xml:space="preserve"
       style="font-style:normal;font-variant:normal;font-weight:normal;font-stretch:normal;font-size:42.9943px;font-family:'Berlin Sans FB Demi';-inkscape-font-specification:'Berlin Sans FB Demi, Normal';font-variant-ligatures:normal;font-variant-caps:normal;font-variant-numeric:normal;font-variant-east-asian:normal;fill:#4b2d83;fill-opacity:1;stroke:none;stroke-width:0.604499"
       x="122.44376"
       y="139.58952"
       id="text836"
       transform="scale(0.867461,1.1527896)"><tspan
         sodipodi:role="line"
         id="tspan834"
         x="122.44376"
         y="139.58952"
         style="font-style:normal;font-variant:normal;font-weight:normal;font-stretch:normal;font-size:42.9943px;font-family:'Berlin Sans FB Demi';-inkscape-font-specification:'Berlin Sans FB Demi, Normal';font-variant-ligatures:normal;font-variant-caps:normal;font-variant-numeric:normal;font-variant-east-asian:normal;fill:#4b2d83;fill-opacity:1;stroke:none;stroke-width:0.604499">O</tspan></text>
  </g>
</svg>
